<svg width="1920" height="1080" viewBox="0 0 1920 1080" fill="none" xmlns="http://www.w3.org/2000/svg">
<g filter="url(#filter0_f_1_28)">
<ellipse cx="1305" cy="224.5" rx="678" ry="677.5" fill="#EEEEEE"/>
</g>
<g filter="url(#filter1_f_1_28)">
<ellipse cx="415.5" cy="170" rx="643.5" ry="547" fill="#D8D8D8"/>
</g>
<g filter="url(#filter2_f_1_28)">
<ellipse cx="512" cy="1073.5" rx="685" ry="583.5" fill="white"/>
</g>
<g filter="url(#filter3_f_1_28)">
<ellipse cx="1471" cy="1105" rx="677" ry="576" fill="#E4E4E4"/>
</g>
<ellipse cx="1429.5" cy="221.5" rx="181.5" ry="181.5" transform="rotate(-150 1429.5 221.5)" fill="url(#paint0_linear_1_28)"/>
<ellipse cx="386.36" cy="651.36" rx="244.036" ry="244.036" transform="rotate(-120 386.36 651.36)" fill="url(#paint1_linear_1_28)"/>
<circle cx="912.424" cy="253.424" r="96.466" transform="rotate(-135 912.424 253.424)" fill="url(#paint2_linear_1_28)"/>
<g filter="url(#filter4_bd_1_28)">
<rect x="446.642" y="920.051" width="670.062" height="1032.36" rx="70" transform="rotate(-90.0549 446.642 920.051)" fill="white" fill-opacity="0.2" shape-rendering="crispEdges"/>
</g>
<path d="M448 679H1479V850C1479 888.66 1447.66 920 1409 920H518C479.34 920 448 888.66 448 850V679Z" fill="url(#paint3_linear_1_28)"/>
<g filter="url(#filter5_f_1_28)">
<path d="M1377 953.201C1377 958.613 1190.97 963 961.5 963C732.026 963 546 958.613 546 953.201C546 947.79 732.026 950.876 961.5 950.876C1190.97 950.876 1377 947.79 1377 953.201Z" fill="#5750A5"/>
</g>
<path d="M553.224 321.312L566.184 348.096C566.728 349.184 567 350 567 350.544C567 351.696 566.072 352.736 564.216 353.664C563.128 354.208 562.264 354.48 561.624 354.48C561.016 354.48 560.504 354.336 560.088 354.048C559.704 353.76 559.416 353.456 559.224 353.136C559.064 352.816 558.824 352.336 558.504 351.696L556.008 346.512H542.712L540.216 351.696C539.896 352.336 539.64 352.8 539.448 353.088C539.288 353.376 539 353.68 538.584 354C538.2 354.288 537.688 354.432 537.048 354.432C536.44 354.432 535.592 354.16 534.504 353.616C532.648 352.72 531.72 351.696 531.72 350.544C531.72 350 531.992 349.184 532.536 348.096L545.496 321.264C545.848 320.528 546.376 319.936 547.08 319.488C547.816 319.04 548.584 318.816 549.384 318.816C551.112 318.816 552.392 319.648 553.224 321.312ZM549.336 332.832L546.168 339.408H552.552L549.336 332.832ZM575.621 341.376C575.621 342.72 576.069 343.776 576.965 344.544C577.861 345.28 578.805 345.648 579.797 345.648C580.821 345.648 581.765 345.36 582.629 344.784C583.525 344.176 584.245 343.872 584.789 343.872C585.749 343.872 586.917 344.72 588.293 346.416C589.029 347.344 589.397 348.176 589.397 348.912C589.397 350.128 588.517 351.264 586.757 352.32C584.933 353.6 582.693 354.24 580.037 354.24C577.061 354.24 574.197 353.168 571.445 351.024C570.133 350 569.061 348.64 568.229 346.944C567.397 345.216 566.981 343.328 566.981 341.28C566.981 339.2 567.397 337.328 568.229 335.664C569.061 333.968 570.133 332.608 571.445 331.584C574.101 329.472 576.933 328.416 579.941 328.416C581.157 328.416 582.341 328.592 583.493 328.944C584.645 329.264 585.493 329.584 586.037 329.904L586.805 330.384C587.381 330.768 587.829 331.072 588.149 331.296C588.981 331.936 589.397 332.672 589.397 333.504C589.397 334.304 589.061 335.216 588.389 336.24C587.237 338 586.133 338.88 585.077 338.88C584.469 338.88 583.605 338.528 582.485 337.824C581.909 337.28 581.077 337.008 579.989 337.008C578.933 337.008 577.941 337.392 577.013 338.16C576.085 338.928 575.621 340 575.621 341.376ZM599.949 341.376C599.949 342.72 600.397 343.776 601.293 344.544C602.189 345.28 603.133 345.648 604.125 345.648C605.149 345.648 606.093 345.36 606.957 344.784C607.853 344.176 608.573 343.872 609.117 343.872C610.077 343.872 611.245 344.72 612.621 346.416C613.357 347.344 613.725 348.176 613.725 348.912C613.725 350.128 612.845 351.264 611.085 352.32C609.261 353.6 607.021 354.24 604.365 354.24C601.389 354.24 598.525 353.168 595.773 351.024C594.461 350 593.389 348.64 592.557 346.944C591.725 345.216 591.309 343.328 591.309 341.28C591.309 339.2 591.725 337.328 592.557 335.664C593.389 333.968 594.461 332.608 595.773 331.584C598.429 329.472 601.261 328.416 604.269 328.416C605.485 328.416 606.669 328.592 607.821 328.944C608.973 329.264 609.821 329.584 610.365 329.904L611.133 330.384C611.709 330.768 612.157 331.072 612.477 331.296C613.309 331.936 613.725 332.672 613.725 333.504C613.725 334.304 613.389 335.216 612.717 336.24C611.565 338 610.461 338.88 609.405 338.88C608.797 338.88 607.933 338.528 606.813 337.824C606.237 337.28 605.405 337.008 604.317 337.008C603.261 337.008 602.269 337.392 601.341 338.16C600.413 338.928 599.949 340 599.949 341.376ZM616.106 341.376C616.106 337.536 617.45 334.368 620.138 331.872C622.826 329.376 625.898 328.128 629.354 328.128C632.81 328.128 635.866 329.376 638.522 331.872C641.178 334.336 642.506 337.488 642.506 341.328C642.506 343.984 641.818 346.352 640.442 348.432C639.066 350.48 637.386 352 635.402 352.992C633.45 353.952 631.418 354.432 629.306 354.432C627.194 354.432 625.146 353.92 623.162 352.896C621.178 351.84 619.498 350.304 618.122 348.288C616.778 346.24 616.106 343.936 616.106 341.376ZM626.138 344.832C627.162 345.6 628.202 345.984 629.258 345.984C630.314 345.984 631.37 345.584 632.426 344.784C633.482 343.984 634.01 342.8 634.01 341.232C634.01 339.664 633.514 338.496 632.522 337.728C631.53 336.96 630.458 336.576 629.306 336.576C628.154 336.576 627.082 336.976 626.09 337.776C625.098 338.576 624.602 339.76 624.602 341.328C624.602 342.864 625.114 344.032 626.138 344.832ZM656.84 353.904C653.608 353.904 650.92 352.688 648.776 350.256C646.664 347.792 645.608 344.8 645.608 341.28V332.88C645.608 332.112 645.624 331.552 645.656 331.2C645.72 330.848 645.864 330.432 646.088 329.952C646.536 329.088 647.784 328.656 649.832 328.656C652.072 328.656 653.384 329.264 653.768 330.48C653.96 330.992 654.056 331.808 654.056 332.928V341.328C654.056 342.64 654.424 343.664 655.16 344.4C655.928 345.136 656.936 345.504 658.184 345.504C659.464 345.504 660.488 345.12 661.256 344.352C662.056 343.584 662.456 342.576 662.456 341.328V332.832C662.456 332.096 662.472 331.552 662.504 331.2C662.568 330.816 662.728 330.384 662.984 329.904C663.4 329.072 664.632 328.656 666.68 328.656C668.696 328.656 669.928 329.088 670.376 329.952C670.6 330.432 670.728 330.864 670.76 331.248C670.824 331.6 670.856 332.144 670.856 332.88V349.872C670.856 350.576 670.824 351.12 670.76 351.504C670.728 351.856 670.584 352.256 670.328 352.704C669.848 353.536 668.616 353.952 666.632 353.952C664.68 353.952 663.48 353.568 663.032 352.8C662.712 352.256 662.552 351.6 662.552 350.832C662.424 351.056 662.136 351.376 661.688 351.792C661.24 352.208 660.808 352.56 660.392 352.848C659.304 353.552 658.12 353.904 656.84 353.904ZM688.781 328.704C691.981 328.704 694.637 329.936 696.749 332.4C698.893 334.832 699.965 337.808 699.965 341.328V349.776C699.965 350.512 699.933 351.072 699.869 351.456C699.837 351.808 699.709 352.208 699.485 352.656C699.037 353.52 697.789 353.952 695.741 353.952C693.469 353.952 692.157 353.36 691.805 352.176C691.613 351.632 691.517 350.816 691.517 349.728V341.28C691.517 339.968 691.133 338.944 690.365 338.208C689.629 337.472 688.621 337.104 687.341 337.104C686.093 337.104 685.069 337.488 684.269 338.256C683.501 339.024 683.117 340.032 683.117 341.28V349.776C683.117 350.512 683.085 351.072 683.021 351.456C682.989 351.808 682.845 352.208 682.589 352.656C682.173 353.52 680.941 353.952 678.893 353.952C676.877 353.952 675.645 353.52 675.197 352.656C674.973 352.176 674.829 351.76 674.765 351.408C674.733 351.024 674.717 350.464 674.717 349.728V332.736C674.717 332.032 674.733 331.504 674.765 331.152C674.829 330.768 674.989 330.352 675.245 329.904C675.693 329.104 676.925 328.704 678.941 328.704C680.893 328.704 682.093 329.072 682.541 329.808C682.861 330.352 683.021 331.008 683.021 331.776C683.149 331.552 683.437 331.232 683.885 330.816C684.333 330.4 684.765 330.064 685.181 329.808C686.269 329.072 687.469 328.704 688.781 328.704ZM718.046 337.2L714.926 337.008V343.632C714.926 344.496 715.054 345.12 715.31 345.504C715.598 345.888 716.11 346.08 716.846 346.08C717.614 346.08 718.19 346.112 718.574 346.176C718.99 346.208 719.422 346.352 719.87 346.608C720.606 347.024 720.974 348.096 720.974 349.824C720.974 351.84 720.526 353.072 719.63 353.52C719.15 353.744 718.718 353.888 718.334 353.952C717.982 353.984 717.454 354 716.75 354C713.422 354 710.894 353.248 709.166 351.744C707.438 350.24 706.574 347.696 706.574 344.112V337.008C705.966 337.104 705.31 337.152 704.605 337.152C703.902 337.152 703.31 336.88 702.83 336.336C702.382 335.792 702.158 334.864 702.158 333.552C702.158 332.24 702.238 331.296 702.398 330.72C702.558 330.112 702.782 329.68 703.07 329.424C703.582 329.008 704.222 328.8 704.99 328.8L706.574 328.992V324.048C706.574 323.312 706.59 322.768 706.622 322.416C706.686 322.064 706.846 321.68 707.102 321.264C707.518 320.464 708.75 320.064 710.798 320.064C712.974 320.064 714.27 320.656 714.686 321.84C714.846 322.352 714.926 323.168 714.926 324.288V328.992C716.334 328.864 717.39 328.8 718.094 328.8C718.83 328.8 719.374 328.832 719.726 328.896C720.11 328.928 720.542 329.072 721.022 329.328C721.854 329.744 722.27 330.976 722.27 333.024C722.27 335.04 721.838 336.272 720.974 336.72C720.494 336.944 720.062 337.088 719.678 337.152C719.326 337.184 718.782 337.2 718.046 337.2Z" fill="black"/>
<g opacity="0.8" filter="url(#filter6_d_1_28)">
<path d="M542.76 838H548.38L558.56 866H553.38L551.58 861.04H539.58L537.78 866H532.6L542.76 838ZM541.36 856.16H549.78L545.56 844.62L541.36 856.16ZM577.668 836H582.548V866H577.668V863.5C577.028 864.393 576.222 865.12 575.248 865.68C574.275 866.24 573.148 866.52 571.868 866.52C570.415 866.52 569.055 866.247 567.788 865.7C566.522 865.153 565.402 864.4 564.428 863.44C563.468 862.467 562.715 861.347 562.168 860.08C561.622 858.813 561.348 857.453 561.348 856C561.348 854.547 561.622 853.187 562.168 851.92C562.715 850.653 563.468 849.54 564.428 848.58C565.402 847.607 566.522 846.847 567.788 846.3C569.055 845.753 570.415 845.48 571.868 845.48C573.148 845.48 574.275 845.76 575.248 846.32C576.222 846.867 577.028 847.593 577.668 848.5V836ZM571.928 861.82C572.968 861.82 573.888 861.56 574.688 861.04C575.488 860.52 576.115 859.82 576.568 858.94C577.022 858.047 577.248 857.067 577.248 856C577.248 854.92 577.022 853.94 576.568 853.06C576.115 852.167 575.482 851.46 574.668 850.94C573.868 850.42 572.955 850.16 571.928 850.16C570.902 850.16 569.962 850.427 569.108 850.96C568.268 851.48 567.595 852.18 567.088 853.06C566.595 853.94 566.348 854.92 566.348 856C566.348 857.08 566.602 858.06 567.108 858.94C567.615 859.82 568.288 860.52 569.128 861.04C569.982 861.56 570.915 861.82 571.928 861.82ZM589.373 866L589.353 846H594.233L594.253 847.78C594.933 847.06 595.746 846.493 596.693 846.08C597.64 845.653 598.66 845.44 599.753 845.44C600.486 845.44 601.22 845.547 601.953 845.76L600.033 850.68C599.526 850.48 599.02 850.38 598.513 850.38C597.726 850.38 597.006 850.573 596.353 850.96C595.713 851.333 595.2 851.847 594.813 852.5C594.44 853.14 594.253 853.853 594.253 854.64V866H589.373ZM606.119 846H610.999V866H606.119V846ZM608.599 843.42C607.879 843.42 607.272 843.187 606.779 842.72C606.285 842.24 606.039 841.64 606.039 840.92C606.039 840.213 606.285 839.62 606.779 839.14C607.272 838.66 607.872 838.42 608.579 838.42C609.285 838.42 609.879 838.66 610.359 839.14C610.852 839.62 611.099 840.213 611.099 840.92C611.099 841.64 610.859 842.24 610.379 842.72C609.899 843.187 609.305 843.42 608.599 843.42ZM632.418 846H637.298V866H632.418L632.198 863.52C631.651 864.413 630.924 865.14 630.018 865.7C629.124 866.247 628.064 866.52 626.838 866.52C625.358 866.52 623.971 866.24 622.678 865.68C621.384 865.12 620.244 864.347 619.258 863.36C618.284 862.373 617.518 861.233 616.958 859.94C616.411 858.647 616.138 857.26 616.138 855.78C616.138 854.353 616.398 853.013 616.918 851.76C617.451 850.507 618.191 849.407 619.138 848.46C620.084 847.513 621.178 846.773 622.418 846.24C623.658 845.707 624.991 845.44 626.418 845.44C627.738 845.44 628.918 845.733 629.958 846.32C631.011 846.907 631.904 847.653 632.638 848.56L632.418 846ZM626.718 861.82C627.758 861.82 628.678 861.56 629.478 861.04C630.278 860.52 630.904 859.82 631.358 858.94C631.811 858.047 632.038 857.067 632.038 856C632.038 854.92 631.811 853.94 631.358 853.06C630.904 852.167 630.271 851.46 629.458 850.94C628.658 850.42 627.744 850.16 626.718 850.16C625.691 850.16 624.751 850.427 623.898 850.96C623.058 851.48 622.384 852.18 621.878 853.06C621.384 853.94 621.138 854.92 621.138 856C621.138 857.08 621.391 858.06 621.898 858.94C622.404 859.82 623.078 860.52 623.918 861.04C624.771 861.56 625.704 861.82 626.718 861.82ZM661.603 853.36V866H656.723V854.64C656.723 853.853 656.529 853.14 656.143 852.5C655.756 851.847 655.236 851.333 654.583 850.96C653.943 850.573 653.229 850.38 652.443 850.38C651.656 850.38 650.936 850.573 650.283 850.96C649.643 851.333 649.129 851.847 648.743 852.5C648.369 853.14 648.183 853.853 648.183 854.64V866H643.303L643.283 846H648.163L648.183 847.78C648.863 847.06 649.676 846.493 650.623 846.08C651.569 845.653 652.589 845.44 653.683 845.44C655.136 845.44 656.463 845.8 657.663 846.52C658.863 847.227 659.816 848.18 660.523 849.38C661.243 850.567 661.603 851.893 661.603 853.36ZM679.197 866L684.637 838H688.677L695.497 855.94L702.317 838H706.357L711.797 866H706.817L703.457 848.68L697.157 865.36H693.817L687.517 848.68L684.177 866H679.197ZM731.55 846H736.43V866H731.55L731.33 863.52C730.784 864.413 730.057 865.14 729.15 865.7C728.257 866.247 727.197 866.52 725.97 866.52C724.49 866.52 723.104 866.24 721.81 865.68C720.517 865.12 719.377 864.347 718.39 863.36C717.417 862.373 716.65 861.233 716.09 859.94C715.544 858.647 715.27 857.26 715.27 855.78C715.27 854.353 715.53 853.013 716.05 851.76C716.584 850.507 717.324 849.407 718.27 848.46C719.217 847.513 720.31 846.773 721.55 846.24C722.79 845.707 724.124 845.44 725.55 845.44C726.87 845.44 728.05 845.733 729.09 846.32C730.144 846.907 731.037 847.653 731.77 848.56L731.55 846ZM725.85 861.82C726.89 861.82 727.81 861.56 728.61 861.04C729.41 860.52 730.037 859.82 730.49 858.94C730.944 858.047 731.17 857.067 731.17 856C731.17 854.92 730.944 853.94 730.49 853.06C730.037 852.167 729.404 851.46 728.59 850.94C727.79 850.42 726.877 850.16 725.85 850.16C724.824 850.16 723.884 850.427 723.03 850.96C722.19 851.48 721.517 852.18 721.01 853.06C720.517 853.94 720.27 854.92 720.27 856C720.27 857.08 720.524 858.06 721.03 858.94C721.537 859.82 722.21 860.52 723.05 861.04C723.904 861.56 724.837 861.82 725.85 861.82ZM742.436 866L742.416 846H747.296L747.316 847.78C747.996 847.06 748.809 846.493 749.756 846.08C750.702 845.653 751.722 845.44 752.816 845.44C753.549 845.44 754.282 845.547 755.016 845.76L753.096 850.68C752.589 850.48 752.082 850.38 751.576 850.38C750.789 850.38 750.069 850.573 749.416 850.96C748.776 851.333 748.262 851.847 747.876 852.5C747.502 853.14 747.316 853.853 747.316 854.64V866H742.436ZM770.526 850.88H766.646V866H761.766V850.88H758.806V846H761.766V839.72H766.646V846H770.526V850.88ZM775.83 846H780.71V866H775.83V846ZM778.31 843.42C777.59 843.42 776.983 843.187 776.49 842.72C775.996 842.24 775.75 841.64 775.75 840.92C775.75 840.213 775.996 839.62 776.49 839.14C776.983 838.66 777.583 838.42 778.29 838.42C778.996 838.42 779.59 838.66 780.07 839.14C780.563 839.62 780.81 840.213 780.81 840.92C780.81 841.64 780.57 842.24 780.09 842.72C779.61 843.187 779.016 843.42 778.31 843.42ZM805.681 853.36V866H800.801V854.64C800.801 853.853 800.608 853.14 800.221 852.5C799.834 851.847 799.314 851.333 798.661 850.96C798.021 850.573 797.308 850.38 796.521 850.38C795.734 850.38 795.014 850.573 794.361 850.96C793.721 851.333 793.208 851.847 792.821 852.5C792.448 853.14 792.261 853.853 792.261 854.64V866H787.381L787.361 846H792.241L792.261 847.78C792.941 847.06 793.754 846.493 794.701 846.08C795.648 845.653 796.668 845.44 797.761 845.44C799.214 845.44 800.541 845.8 801.741 846.52C802.941 847.227 803.894 848.18 804.601 849.38C805.321 850.567 805.681 851.893 805.681 853.36ZM820.075 866.52C818.235 866.52 816.555 866.047 815.035 865.1C813.528 864.153 812.322 862.88 811.415 861.28C810.522 859.68 810.075 857.913 810.075 855.98C810.075 854.527 810.335 853.167 810.855 851.9C811.375 850.62 812.088 849.5 812.995 848.54C813.915 847.567 814.982 846.807 816.195 846.26C817.408 845.713 818.702 845.44 820.075 845.44C821.635 845.44 823.062 845.773 824.355 846.44C825.662 847.093 826.768 847.993 827.675 849.14C828.582 850.287 829.242 851.593 829.655 853.06C830.068 854.527 830.162 856.06 829.935 857.66H815.315C815.502 858.407 815.808 859.08 816.235 859.68C816.662 860.267 817.202 860.74 817.855 861.1C818.508 861.447 819.248 861.627 820.075 861.64C820.928 861.653 821.702 861.453 822.395 861.04C823.102 860.613 823.688 860.04 824.155 859.32L829.135 860.48C828.322 862.253 827.108 863.707 825.495 864.84C823.882 865.96 822.075 866.52 820.075 866.52ZM815.155 854H824.995C824.848 853.2 824.535 852.48 824.055 851.84C823.588 851.187 823.008 850.667 822.315 850.28C821.622 849.893 820.875 849.7 820.075 849.7C819.275 849.7 818.535 849.893 817.855 850.28C817.175 850.653 816.595 851.167 816.115 851.82C815.648 852.46 815.328 853.187 815.155 854ZM851.274 850.88L841.214 861.12H851.274V866H834.194V861.12L844.254 850.88H834.194V846H851.274V850.88Z" fill="white"/>
</g>
<g opacity="0.8" filter="url(#filter7_d_1_28)">
<path d="M543.1 779.52C541.473 779.52 539.993 779.147 538.66 778.4C537.327 777.64 536.173 776.593 535.2 775.26C534.24 773.927 533.5 772.387 532.98 770.64C532.46 768.88 532.2 767 532.2 765C532.2 763 532.46 761.127 532.98 759.38C533.5 757.62 534.24 756.073 535.2 754.74C536.173 753.407 537.327 752.367 538.66 751.62C539.993 750.86 541.473 750.48 543.1 750.48C544.727 750.48 546.207 750.86 547.54 751.62C548.873 752.367 550.013 753.407 550.96 754.74C551.92 756.073 552.66 757.62 553.18 759.38C553.713 761.127 553.98 763 553.98 765C553.98 767 553.713 768.88 553.18 770.64C552.66 772.387 551.92 773.927 550.96 775.26C550.013 776.593 548.873 777.64 547.54 778.4C546.207 779.147 544.727 779.52 543.1 779.52ZM543.1 774.64C544.527 774.64 545.707 774.187 546.64 773.28C547.573 772.373 548.267 771.187 548.72 769.72C549.173 768.253 549.4 766.68 549.4 765C549.4 763.227 549.16 761.613 548.68 760.16C548.2 758.693 547.493 757.527 546.56 756.66C545.627 755.793 544.473 755.36 543.1 755.36C542.02 755.36 541.08 755.627 540.28 756.16C539.493 756.68 538.84 757.393 538.32 758.3C537.8 759.207 537.413 760.24 537.16 761.4C536.907 762.547 536.78 763.747 536.78 765C536.78 766.667 537.007 768.24 537.46 769.72C537.927 771.187 538.627 772.373 539.56 773.28C540.507 774.187 541.687 774.64 543.1 774.64ZM559.38 779L572.72 755.88H557.98V751H578.38V755.88L565 779H559.38ZM595.772 751L587.652 781.24H582.772L590.892 751H595.772ZM612.903 779V772.22H600.983V767.32L611.763 751H617.783V767.34H620.143V772.22H617.783V779H612.903ZM606.643 767.32L612.903 767.34L612.883 757.66L606.643 767.32ZM635.436 779.52C633.809 779.52 632.329 779.147 630.996 778.4C629.663 777.64 628.509 776.593 627.536 775.26C626.576 773.927 625.836 772.387 625.316 770.64C624.796 768.88 624.536 767 624.536 765C624.536 763 624.796 761.127 625.316 759.38C625.836 757.62 626.576 756.073 627.536 754.74C628.509 753.407 629.663 752.367 630.996 751.62C632.329 750.86 633.809 750.48 635.436 750.48C637.063 750.48 638.543 750.86 639.876 751.62C641.209 752.367 642.349 753.407 643.296 754.74C644.256 756.073 644.996 757.62 645.516 759.38C646.049 761.127 646.316 763 646.316 765C646.316 767 646.049 768.88 645.516 770.64C644.996 772.387 644.256 773.927 643.296 775.26C642.349 776.593 641.209 777.64 639.876 778.4C638.543 779.147 637.063 779.52 635.436 779.52ZM635.436 774.64C636.863 774.64 638.043 774.187 638.976 773.28C639.909 772.373 640.603 771.187 641.056 769.72C641.509 768.253 641.736 766.68 641.736 765C641.736 763.227 641.496 761.613 641.016 760.16C640.536 758.693 639.829 757.527 638.896 756.66C637.963 755.793 636.809 755.36 635.436 755.36C634.356 755.36 633.416 755.627 632.616 756.16C631.829 756.68 631.176 757.393 630.656 758.3C630.136 759.207 629.749 760.24 629.496 761.4C629.243 762.547 629.116 763.747 629.116 765C629.116 766.667 629.343 768.24 629.796 769.72C630.263 771.187 630.963 772.373 631.896 773.28C632.843 774.187 634.023 774.64 635.436 774.64Z" fill="white"/>
<path d="M536.596 736L531.77 722.7H534.23L538.078 733.292L541.935 722.7H544.386L539.56 736H536.596ZM549.949 722.7H552.619L557.454 736H554.994L554.139 733.644H548.439L547.584 736H545.123L549.949 722.7ZM549.284 731.326H553.284L551.279 725.844L549.284 731.326ZM559.998 736V722.7H562.316V733.682H567.855V736H559.998ZM571.178 736V722.7H573.496V736H571.178ZM577.02 736V722.7H581.428C582.346 722.7 583.205 722.874 584.003 723.222C584.807 723.564 585.513 724.043 586.121 724.657C586.735 725.265 587.214 725.971 587.556 726.775C587.904 727.573 588.078 728.432 588.078 729.35C588.078 730.268 587.904 731.13 587.556 731.934C587.214 732.732 586.735 733.438 586.121 734.052C585.513 734.66 584.807 735.139 584.003 735.487C583.205 735.829 582.346 736 581.428 736H577.02ZM579.338 733.682H581.428C582.017 733.682 582.571 733.571 583.091 733.349C583.616 733.121 584.079 732.811 584.478 732.418C584.877 732.019 585.19 731.56 585.418 731.041C585.646 730.515 585.76 729.952 585.76 729.35C585.76 728.748 585.646 728.188 585.418 727.668C585.19 727.149 584.877 726.69 584.478 726.291C584.079 725.892 583.619 725.582 583.1 725.36C582.581 725.132 582.023 725.018 581.428 725.018H579.338V733.682ZM606.32 722.7V725.018H602.254V736H599.936V725.018H595.87V722.7H606.32ZM616.996 722.7H619.314V736H616.996V730.034H611.486V736H609.168V722.7H611.486V727.716H616.996V722.7ZM622.55 736V722.7H627.651C628.373 722.7 629.025 722.88 629.608 723.241C630.191 723.602 630.653 724.087 630.995 724.695C631.337 725.297 631.508 725.965 631.508 726.699C631.508 727.301 631.397 727.855 631.176 728.362C630.96 728.862 630.656 729.296 630.264 729.663C629.877 730.031 629.431 730.309 628.924 730.499L632.107 736H629.437L626.359 730.708H624.868V736H622.55ZM624.868 728.39H627.385C627.714 728.39 628.015 728.308 628.288 728.143C628.56 727.979 628.778 727.757 628.943 727.478C629.108 727.2 629.19 726.889 629.19 726.547C629.19 726.199 629.108 725.886 628.943 725.607C628.778 725.328 628.56 725.107 628.288 724.942C628.015 724.777 627.714 724.695 627.385 724.695H624.868V728.39ZM640.352 736.247C639.288 736.247 638.353 735.987 637.549 735.468C636.751 734.949 636.13 734.252 635.687 733.378C635.244 732.498 635.022 731.522 635.022 730.452V722.7H637.34V730.452C637.34 731.085 637.457 731.668 637.692 732.2C637.932 732.726 638.274 733.147 638.718 733.463C639.167 733.774 639.712 733.929 640.352 733.929C640.998 733.929 641.542 733.774 641.986 733.463C642.429 733.147 642.765 732.726 642.993 732.2C643.227 731.668 643.344 731.085 643.344 730.452V722.7H645.662V730.452C645.662 731.256 645.535 732.01 645.282 732.713C645.029 733.41 644.668 734.024 644.199 734.556C643.73 735.088 643.17 735.503 642.518 735.8C641.872 736.098 641.15 736.247 640.352 736.247Z" fill="white"/>
</g>
<path d="M532.76 617V611.5H542.66V585.595L534.575 590.875L531.99 585.595L542.66 578.5H549.535V611.5H557.125V617H532.76ZM596.921 610.95L596.866 617H573.106V611.39C578.972 605.56 583.244 600.867 585.921 597.31C588.597 593.753 589.936 590.655 589.936 588.015C589.936 585.338 587.992 584 584.106 584C581.319 584 578.661 584.367 576.131 585.1L574.866 585.43L573.821 579.765C576.754 578.555 580.237 577.95 584.271 577.95C588.304 577.95 591.402 578.793 593.566 580.48C595.766 582.13 596.866 584.477 596.866 587.52C596.866 590.563 595.692 593.918 593.346 597.585C591.036 601.252 587.479 605.707 582.676 610.95H596.921ZM617.293 594.395H623.068C624.938 594.395 626.405 593.863 627.468 592.8C628.568 591.7 629.118 590.343 629.118 588.73C629.118 585.577 627.303 584 623.673 584C622.427 584 621.07 584.183 619.603 584.55C618.137 584.917 616.963 585.283 616.083 585.65L614.818 586.255L613.498 580.59C614.708 579.893 616.267 579.288 618.173 578.775C620.117 578.225 621.895 577.95 623.508 577.95C627.615 577.95 630.677 578.885 632.693 580.755C634.71 582.588 635.718 585.1 635.718 588.29C635.718 590.527 635.187 592.488 634.123 594.175C633.06 595.825 631.685 596.852 629.998 597.255C632.015 597.585 633.683 598.502 635.003 600.005C636.323 601.472 636.983 603.342 636.983 605.615C636.983 609.282 635.755 612.16 633.298 614.25C630.878 616.303 627.468 617.33 623.068 617.33C621.198 617.33 619.383 617.11 617.623 616.67C615.863 616.23 614.58 615.79 613.773 615.35L612.508 614.745L614.708 609.19C617.642 610.583 620.392 611.28 622.958 611.28C625.562 611.28 627.432 610.822 628.568 609.905C629.742 608.988 630.328 607.705 630.328 606.055C630.328 604.405 629.687 603.067 628.403 602.04C627.157 600.977 625.378 600.445 623.068 600.445H617.293V594.395ZM667.526 617V610.895H650.696V605.725L662.741 578.5H669.616L657.956 604.845H667.526V595.99H673.961V604.845H677.701V610.895H673.961V617H667.526ZM732.978 617V610.895H716.148V605.725L728.193 578.5H735.068L723.408 604.845H732.978V595.99H739.413V604.845H743.153V610.895H739.413V617H732.978ZM770.435 611.5C775.642 611.5 778.245 609.3 778.245 604.9C778.245 600.5 775.642 598.3 770.435 598.3L761.525 598.245L762.845 578.5H783.58L783.305 584.275H769.115L768.51 592.305C769.317 592.268 770.105 592.25 770.875 592.25C775.092 592.25 778.465 593.332 780.995 595.495C783.562 597.622 784.845 600.628 784.845 604.515C784.845 608.402 783.635 611.518 781.215 613.865C778.795 616.175 775.294 617.33 770.71 617.33C768.804 617.33 766.915 617.092 765.045 616.615C763.175 616.138 761.782 615.643 760.865 615.13L759.49 614.415L761.58 609.3C764.807 610.767 767.759 611.5 770.435 611.5ZM814.964 592.635C818.961 592.635 822.041 593.68 824.204 595.77C826.404 597.86 827.504 600.83 827.504 604.68C827.504 608.53 826.367 611.61 824.094 613.92C821.857 616.193 818.814 617.33 814.964 617.33C806.091 617.33 801.654 611.537 801.654 599.95C801.654 589.243 804.221 582.478 809.354 579.655C811.407 578.518 813.901 577.95 816.834 577.95C818.374 577.95 819.877 578.097 821.344 578.39C822.811 578.683 823.911 578.977 824.644 579.27L825.689 579.765L824.149 585.265C821.582 584.275 818.979 583.78 816.339 583.78C811.316 583.78 808.566 587.227 808.089 594.12C810.436 593.13 812.727 592.635 814.964 592.635ZM815.239 611.555C817.036 611.555 818.466 610.968 819.529 609.795C820.629 608.585 821.179 607.082 821.179 605.285C821.179 600.702 819.034 598.41 814.744 598.41C812.507 598.41 810.252 599.088 807.979 600.445C807.979 604.148 808.529 606.935 809.629 608.805C810.766 610.638 812.636 611.555 815.239 611.555ZM841.814 584.825V578.5H867.719V584.825L851.219 617H843.904L860.074 584.825H841.814ZM920.895 577.95C924.598 577.95 927.495 578.848 929.585 580.645C931.711 582.405 932.775 584.568 932.775 587.135C932.775 589.702 932.243 591.92 931.18 593.79C930.153 595.623 929.053 597.053 927.88 598.08C929.75 599.107 931.198 600.262 932.225 601.545C933.251 602.828 933.765 604.423 933.765 606.33C933.765 609.813 932.573 612.527 930.19 614.47C927.806 616.377 924.47 617.33 920.18 617.33C915.926 617.33 912.736 616.322 910.61 614.305C908.483 612.288 907.42 609.795 907.42 606.825C907.42 603.452 908.96 600.573 912.04 598.19C912.626 597.713 913.213 597.31 913.8 596.98C910.39 594.89 908.685 592.122 908.685 588.675C908.685 585.192 909.785 582.533 911.985 580.7C914.221 578.867 917.191 577.95 920.895 577.95ZM919.3 599.84C915.596 601.82 913.745 604.075 913.745 606.605C913.745 608.108 914.295 609.337 915.395 610.29C916.531 611.207 918.163 611.665 920.29 611.665C922.453 611.665 924.176 611.225 925.46 610.345C926.78 609.465 927.44 608.292 927.44 606.825C927.44 605.102 926.633 603.69 925.02 602.59C923.773 601.783 921.866 600.867 919.3 599.84ZM926.56 587.85C926.56 586.677 926.046 585.705 925.02 584.935C923.993 584.128 922.618 583.725 920.895 583.725C919.208 583.725 917.778 584.11 916.605 584.88C915.468 585.65 914.9 586.585 914.9 587.685C914.9 588.785 915.083 589.702 915.45 590.435C915.816 591.168 916.458 591.865 917.375 592.525C918.291 593.148 919.043 593.625 919.63 593.955C920.253 594.248 921.261 594.707 922.655 595.33C925.258 593.093 926.56 590.6 926.56 587.85ZM962.1 602.645C958.104 602.645 955.005 601.6 952.805 599.51C950.642 597.42 949.56 594.45 949.56 590.6C949.56 586.75 950.679 583.688 952.915 581.415C955.189 579.105 958.25 577.95 962.1 577.95C970.974 577.95 975.41 583.743 975.41 595.33C975.41 606.037 972.844 612.802 967.71 615.625C965.657 616.762 963.164 617.33 960.23 617.33C958.69 617.33 957.187 617.183 955.72 616.89C954.254 616.597 953.172 616.303 952.475 616.01L951.375 615.515L952.915 610.015C955.482 611.005 958.085 611.5 960.725 611.5C965.712 611.5 968.444 608.053 968.92 601.16C966.83 602.15 964.557 602.645 962.1 602.645ZM961.825 583.725C960.029 583.725 958.58 584.33 957.48 585.54C956.417 586.713 955.885 588.198 955.885 589.995C955.885 594.578 958.03 596.87 962.32 596.87C964.484 596.87 966.739 596.21 969.085 594.89V594.67C969.085 591.04 968.517 588.308 967.38 586.475C966.28 584.642 964.429 583.725 961.825 583.725ZM1018.29 597.64C1018.29 607.54 1015.56 613.737 1010.1 616.23C1008.45 616.963 1006.56 617.33 1004.43 617.33C995.667 617.33 991.286 610.767 991.286 597.64C991.286 592.323 992.221 587.832 994.091 584.165C995.081 582.222 996.511 580.7 998.381 579.6C1000.25 578.5 1002.49 577.95 1005.09 577.95C1013.89 577.95 1018.29 584.513 1018.29 597.64ZM1011.42 597.75V597.53C1011.42 588.51 1009.22 584 1004.82 584C1002.47 584 1000.76 585.265 999.701 587.795C998.674 590.325 998.161 593.607 998.161 597.64C998.161 601.673 998.674 604.955 999.701 607.485C1000.76 610.015 1002.47 611.28 1004.82 611.28C1009.22 611.28 1011.42 606.77 1011.42 597.75ZM1033.47 617V611.5H1043.37V585.595L1035.29 590.875L1032.7 585.595L1043.37 578.5H1050.25V611.5H1057.84V617H1033.47ZM1122.39 610.95L1122.33 617H1098.57V611.39C1104.44 605.56 1108.71 600.867 1111.39 597.31C1114.06 593.753 1115.4 590.655 1115.4 588.015C1115.4 585.338 1113.46 584 1109.57 584C1106.78 584 1104.13 584.367 1101.6 585.1L1100.33 585.43L1099.29 579.765C1102.22 578.555 1105.7 577.95 1109.74 577.95C1113.77 577.95 1116.87 578.793 1119.03 580.48C1121.23 582.13 1122.33 584.477 1122.33 587.52C1122.33 590.563 1121.16 593.918 1118.81 597.585C1116.5 601.252 1112.94 605.707 1108.14 610.95H1122.39ZM1142.76 594.395H1148.53C1150.4 594.395 1151.87 593.863 1152.93 592.8C1154.03 591.7 1154.58 590.343 1154.58 588.73C1154.58 585.577 1152.77 584 1149.14 584C1147.89 584 1146.53 584.183 1145.07 584.55C1143.6 584.917 1142.43 585.283 1141.55 585.65L1140.28 586.255L1138.96 580.59C1140.17 579.893 1141.73 579.288 1143.64 578.775C1145.58 578.225 1147.36 577.95 1148.97 577.95C1153.08 577.95 1156.14 578.885 1158.16 580.755C1160.17 582.588 1161.18 585.1 1161.18 588.29C1161.18 590.527 1160.65 592.488 1159.59 594.175C1158.52 595.825 1157.15 596.852 1155.46 597.255C1157.48 597.585 1159.15 598.502 1160.47 600.005C1161.79 601.472 1162.45 603.342 1162.45 605.615C1162.45 609.282 1161.22 612.16 1158.76 614.25C1156.34 616.303 1152.93 617.33 1148.53 617.33C1146.66 617.33 1144.85 617.11 1143.09 616.67C1141.33 616.23 1140.04 615.79 1139.24 615.35L1137.97 614.745L1140.17 609.19C1143.11 610.583 1145.86 611.28 1148.42 611.28C1151.03 611.28 1152.9 610.822 1154.03 609.905C1155.21 608.988 1155.79 607.705 1155.79 606.055C1155.79 604.405 1155.15 603.067 1153.87 602.04C1152.62 600.977 1150.84 600.445 1148.53 600.445H1142.76V594.395ZM1192.99 617V610.895H1176.16V605.725L1188.21 578.5H1195.08L1183.42 604.845H1192.99V595.99H1199.43V604.845H1203.17V610.895H1199.43V617H1192.99ZM1230.45 611.5C1235.65 611.5 1238.26 609.3 1238.26 604.9C1238.26 600.5 1235.65 598.3 1230.45 598.3L1221.54 598.245L1222.86 578.5H1243.59L1243.32 584.275H1229.13L1228.52 592.305C1229.33 592.268 1230.12 592.25 1230.89 592.25C1235.1 592.25 1238.48 593.332 1241.01 595.495C1243.57 597.622 1244.86 600.628 1244.86 604.515C1244.86 608.402 1243.65 611.518 1241.23 613.865C1238.81 616.175 1235.31 617.33 1230.72 617.33C1228.82 617.33 1226.93 617.092 1225.06 616.615C1223.19 616.138 1221.79 615.643 1220.88 615.13L1219.5 614.415L1221.59 609.3C1224.82 610.767 1227.77 611.5 1230.45 611.5Z" fill="url(#paint4_linear_1_28)"/>
<g opacity="0.2" filter="url(#filter8_b_1_28)">
<circle cx="1402.48" cy="841.479" r="42" transform="rotate(-179.343 1402.48 841.479)" fill="url(#paint5_radial_1_28)"/>
</g>
<g opacity="0.2" filter="url(#filter9_b_1_28)">
<circle cx="1334.48" cy="842.479" r="42" transform="rotate(-30 1334.48 842.479)" fill="url(#paint6_radial_1_28)"/>
</g>
<g opacity="0.7" filter="url(#filter10_f_1_28)">
<ellipse cx="1446" cy="661.5" rx="29" ry="72.5" fill="#000080"/>
</g>
<g opacity="0.1" filter="url(#filter11_f_1_28)">
<ellipse cx="1375.83" cy="303.823" rx="97.2911" ry="63.5571" transform="rotate(21.5377 1375.83 303.823)" fill="#000080"/>
</g>
<g opacity="0.05" filter="url(#filter12_f_1_28)">
<ellipse cx="912.241" cy="290.327" rx="74.6401" ry="70.0284" transform="rotate(-15 912.241 290.327)" fill="#000080"/>
</g>
<g opacity="0.1" filter="url(#filter13_f_1_28)">
<ellipse cx="509.804" cy="610.795" rx="94.5881" ry="179.428" transform="rotate(-15 509.804 610.795)" fill="#000080"/>
</g>
<ellipse cx="1538.07" cy="652.659" rx="129.753" ry="129.753" transform="rotate(165 1538.07 652.659)" fill="url(#paint7_linear_1_28)"/>
<defs>
<filter id="filter0_f_1_28" x="227" y="-853" width="2156" height="2155" filterUnits="userSpaceOnUse" color-interpolation-filters="sRGB">
<feFlood flood-opacity="0" result="BackgroundImageFix"/>
<feBlend mode="normal" in="SourceGraphic" in2="BackgroundImageFix" result="shape"/>
<feGaussianBlur stdDeviation="200" result="effect1_foregroundBlur_1_28"/>
</filter>
<filter id="filter1_f_1_28" x="-628" y="-777" width="2087" height="1894" filterUnits="userSpaceOnUse" color-interpolation-filters="sRGB">
<feFlood flood-opacity="0" result="BackgroundImageFix"/>
<feBlend mode="normal" in="SourceGraphic" in2="BackgroundImageFix" result="shape"/>
<feGaussianBlur stdDeviation="200" result="effect1_foregroundBlur_1_28"/>
</filter>
<filter id="filter2_f_1_28" x="-573" y="90" width="2170" height="1967" filterUnits="userSpaceOnUse" color-interpolation-filters="sRGB">
<feFlood flood-opacity="0" result="BackgroundImageFix"/>
<feBlend mode="normal" in="SourceGraphic" in2="BackgroundImageFix" result="shape"/>
<feGaussianBlur stdDeviation="200" result="effect1_foregroundBlur_1_28"/>
</filter>
<filter id="filter3_f_1_28" x="394" y="129" width="2154" height="1952" filterUnits="userSpaceOnUse" color-interpolation-filters="sRGB">
<feFlood flood-opacity="0" result="BackgroundImageFix"/>
<feBlend mode="normal" in="SourceGraphic" in2="BackgroundImageFix" result="shape"/>
<feGaussianBlur stdDeviation="200" result="effect1_foregroundBlur_1_28"/>
</filter>
<filter id="filter4_bd_1_28" x="416.067" y="209.067" width="1132.87" height="770.917" filterUnits="userSpaceOnUse" color-interpolation-filters="sRGB">
<feFlood flood-opacity="0" result="BackgroundImageFix"/>
<feGaussianBlur in="BackgroundImageFix" stdDeviation="15"/>
<feComposite in2="SourceAlpha" operator="in" result="effect1_backgroundBlur_1_28"/>
<feColorMatrix in="SourceAlpha" type="matrix" values="0 0 0 0 0 0 0 0 0 0 0 0 0 0 0 0 0 0 127 0" result="hardAlpha"/>
<feOffset dx="20" dy="10"/>
<feGaussianBlur stdDeviation="25"/>
<feComposite in2="hardAlpha" operator="out"/>
<feColorMatrix type="matrix" values="0 0 0 0 0 0 0 0 0 0 0 0 0 0 0 0 0 0 0.15 0"/>
<feBlend mode="normal" in2="effect1_backgroundBlur_1_28" result="effect2_dropShadow_1_28"/>
<feBlend mode="normal" in="SourceGraphic" in2="effect2_dropShadow_1_28" result="shape"/>
</filter>
<filter id="filter5_f_1_28" x="466" y="870" width="991" height="173" filterUnits="userSpaceOnUse" color-interpolation-filters="sRGB">
<feFlood flood-opacity="0" result="BackgroundImageFix"/>
<feBlend mode="normal" in="SourceGraphic" in2="BackgroundImageFix" result="shape"/>
<feGaussianBlur stdDeviation="40" result="effect1_foregroundBlur_1_28"/>
</filter>
<filter id="filter6_d_1_28" x="527.6" y="836" width="328.674" height="40.52" filterUnits="userSpaceOnUse" color-interpolation-filters="sRGB">
<feFlood flood-opacity="0" result="BackgroundImageFix"/>
<feColorMatrix in="SourceAlpha" type="matrix" values="0 0 0 0 0 0 0 0 0 0 0 0 0 0 0 0 0 0 127 0" result="hardAlpha"/>
<feOffset dy="5"/>
<feGaussianBlur stdDeviation="2.5"/>
<feComposite in2="hardAlpha" operator="out"/>
<feColorMatrix type="matrix" values="0 0 0 0 0 0 0 0 0 0 0 0 0 0 0 0 0 0 0.51 0"/>
<feBlend mode="normal" in2="BackgroundImageFix" result="effect1_dropShadow_1_28"/>
<feBlend mode="normal" in="SourceGraphic" in2="effect1_dropShadow_1_28" result="shape"/>
</filter>
<filter id="filter7_d_1_28" x="527.77" y="722.7" width="122.546" height="66.54" filterUnits="userSpaceOnUse" color-interpolation-filters="sRGB">
<feFlood flood-opacity="0" result="BackgroundImageFix"/>
<feColorMatrix in="SourceAlpha" type="matrix" values="0 0 0 0 0 0 0 0 0 0 0 0 0 0 0 0 0 0 127 0" result="hardAlpha"/>
<feOffset dy="4"/>
<feGaussianBlur stdDeviation="2"/>
<feComposite in2="hardAlpha" operator="out"/>
<feColorMatrix type="matrix" values="0 0 0 0 0 0 0 0 0 0 0 0 0 0 0 0 0 0 0.51 0"/>
<feBlend mode="normal" in2="BackgroundImageFix" result="effect1_dropShadow_1_28"/>
<feBlend mode="normal" in="SourceGraphic" in2="effect1_dropShadow_1_28" result="shape"/>
</filter>
<filter id="filter8_b_1_28" x="1330.48" y="769.479" width="144" height="144" filterUnits="userSpaceOnUse" color-interpolation-filters="sRGB">
<feFlood flood-opacity="0" result="BackgroundImageFix"/>
<feGaussianBlur in="BackgroundImageFix" stdDeviation="15"/>
<feComposite in2="SourceAlpha" operator="in" result="effect1_backgroundBlur_1_28"/>
<feBlend mode="normal" in="SourceGraphic" in2="effect1_backgroundBlur_1_28" result="shape"/>
</filter>
<filter id="filter9_b_1_28" x="1262.47" y="770.472" width="144.014" height="144.014" filterUnits="userSpaceOnUse" color-interpolation-filters="sRGB">
<feFlood flood-opacity="0" result="BackgroundImageFix"/>
<feGaussianBlur in="BackgroundImageFix" stdDeviation="15"/>
<feComposite in2="SourceAlpha" operator="in" result="effect1_backgroundBlur_1_28"/>
<feBlend mode="normal" in="SourceGraphic" in2="effect1_backgroundBlur_1_28" result="shape"/>
</filter>
<filter id="filter10_f_1_28" x="1367" y="539" width="158" height="245" filterUnits="userSpaceOnUse" color-interpolation-filters="sRGB">
<feFlood flood-opacity="0" result="BackgroundImageFix"/>
<feBlend mode="normal" in="SourceGraphic" in2="BackgroundImageFix" result="shape"/>
<feGaussianBlur stdDeviation="25" result="effect1_foregroundBlur_1_28"/>
</filter>
<filter id="filter11_f_1_28" x="1232.35" y="184.742" width="286.96" height="238.162" filterUnits="userSpaceOnUse" color-interpolation-filters="sRGB">
<feFlood flood-opacity="0" result="BackgroundImageFix"/>
<feBlend mode="normal" in="SourceGraphic" in2="BackgroundImageFix" result="shape"/>
<feGaussianBlur stdDeviation="25" result="effect1_foregroundBlur_1_28"/>
</filter>
<filter id="filter12_f_1_28" x="787.883" y="169.962" width="248.716" height="240.73" filterUnits="userSpaceOnUse" color-interpolation-filters="sRGB">
<feFlood flood-opacity="0" result="BackgroundImageFix"/>
<feBlend mode="normal" in="SourceGraphic" in2="BackgroundImageFix" result="shape"/>
<feGaussianBlur stdDeviation="25" result="effect1_foregroundBlur_1_28"/>
</filter>
<filter id="filter13_f_1_28" x="357.293" y="385.739" width="305.024" height="450.113" filterUnits="userSpaceOnUse" color-interpolation-filters="sRGB">
<feFlood flood-opacity="0" result="BackgroundImageFix"/>
<feBlend mode="normal" in="SourceGraphic" in2="BackgroundImageFix" result="shape"/>
<feGaussianBlur stdDeviation="25" result="effect1_foregroundBlur_1_28"/>
</filter>
<linearGradient id="paint0_linear_1_28" x1="1282.17" y1="120.498" x2="1429.5" y2="403" gradientUnits="userSpaceOnUse">
<stop offset="0.320539" stop-color="#BFB0B0"/>
<stop offset="1" stop-color="white"/>
</linearGradient>
<linearGradient id="paint1_linear_1_28" x1="188.272" y1="515.557" x2="386.36" y2="895.396" gradientUnits="userSpaceOnUse">
<stop offset="0.320539" stop-color="#BFB0B0"/>
<stop offset="1" stop-color="white"/>
</linearGradient>
<linearGradient id="paint2_linear_1_28" x1="834.121" y1="199.742" x2="933.883" y2="376.814" gradientUnits="userSpaceOnUse">
<stop offset="0.320539" stop-color="#0E33F3" stop-opacity="0.56"/>
<stop offset="1" stop-color="white"/>
</linearGradient>
<linearGradient id="paint3_linear_1_28" x1="418.029" y1="679" x2="1499.58" y2="919.556" gradientUnits="userSpaceOnUse">
<stop offset="0.0330574" stop-color="#2438F0"/>
<stop offset="0.536351" stop-color="#2C21CF" stop-opacity="0.79"/>
<stop offset="0.945062" stop-color="#1656FA" stop-opacity="0.488348"/>
</linearGradient>
<linearGradient id="paint4_linear_1_28" x1="889.5" y1="564" x2="889.5" y2="632" gradientUnits="userSpaceOnUse">
<stop stop-color="#A0A4F3" stop-opacity="0.697917"/>
<stop offset="0.455963"/>
</linearGradient>
<radialGradient id="paint5_radial_1_28" cx="0" cy="0" r="1" gradientUnits="userSpaceOnUse" gradientTransform="translate(1444.96 841.471) rotate(179.343) scale(85)">
<stop stop-color="white" stop-opacity="0"/>
<stop offset="0.497633" stop-color="white" stop-opacity="0.66"/>
<stop offset="1" stop-color="white"/>
</radialGradient>
<radialGradient id="paint6_radial_1_28" cx="0" cy="0" r="1" gradientUnits="userSpaceOnUse" gradientTransform="translate(1376.96 842.471) rotate(179.343) scale(85)">
<stop stop-color="white" stop-opacity="0"/>
<stop offset="0.497633" stop-color="white" stop-opacity="0.66"/>
<stop offset="1" stop-color="white"/>
</radialGradient>
<linearGradient id="paint7_linear_1_28" x1="1432.75" y1="580.454" x2="1538.07" y2="782.412" gradientUnits="userSpaceOnUse">
<stop offset="0.320539" stop-color="#B4C4EC"/>
<stop offset="1" stop-color="#EFEFF2"/>
</linearGradient>
</defs>
</svg>
