<svg width="291" height="266" viewBox="0 0 291 266" fill="none" xmlns="http://www.w3.org/2000/svg">
<path d="M258.215 88.2603H207.273C202.799 88.2603 200.589 85.2276 199.834 83.9042C199.08 82.5809 197.57 79.107 199.727 75.137L217.677 42.053C221.613 34.8296 222.044 26.2829 218.809 18.6736C215.575 11.0643 209.214 5.55031 201.344 3.51013L188.676 0.256873C185.603 -0.515086 182.315 0.477433 180.158 2.90359L111.428 81.0921C104.582 88.8668 100.7 98.792 100.377 109.213H43.4518C32.7783 109.213 24.1533 115.389 24.1533 122.998V233.113C24.1533 240.722 32.7783 246.898 43.4518 246.898H139.89C141.076 247.008 142.262 247.063 143.502 247.063H229.321C248.674 247.063 265.816 233.72 270.937 214.641L289.373 128.182C289.912 125.755 290.181 123.329 290.181 120.848C290.074 102.872 275.788 88.2603 258.215 88.2603Z" fill="url(#paint0_linear_78_157)"/>
<g filter="url(#filter0_bi_78_157)">
<rect y="80.7024" width="66.4225" height="185.298" rx="3" fill="#BCCBF1" fill-opacity="0.5"/>
</g>
<defs>
<filter id="filter0_bi_78_157" x="-4" y="76.7024" width="74.4229" height="193.298" filterUnits="userSpaceOnUse" color-interpolation-filters="sRGB">
<feFlood flood-opacity="0" result="BackgroundImageFix"/>
<feGaussianBlur in="BackgroundImageFix" stdDeviation="2"/>
<feComposite in2="SourceAlpha" operator="in" result="effect1_backgroundBlur_78_157"/>
<feBlend mode="normal" in="SourceGraphic" in2="effect1_backgroundBlur_78_157" result="shape"/>
<feColorMatrix in="SourceAlpha" type="matrix" values="0 0 0 0 0 0 0 0 0 0 0 0 0 0 0 0 0 0 127 0" result="hardAlpha"/>
<feOffset dx="0.2" dy="0.1"/>
<feGaussianBlur stdDeviation="0.5"/>
<feComposite in2="hardAlpha" operator="arithmetic" k2="-1" k3="1"/>
<feColorMatrix type="matrix" values="0 0 0 0 1 0 0 0 0 1 0 0 0 0 1 0 0 0 0.6 0"/>
<feBlend mode="normal" in2="shape" result="effect2_innerShadow_78_157"/>
</filter>
<linearGradient id="paint0_linear_78_157" x1="42.1891" y1="75.3753" x2="278.57" y2="51.1347" gradientUnits="userSpaceOnUse">
<stop stop-color="#0B5CD6"/>
<stop offset="0.0001" stop-color="#0B5CD6"/>
<stop offset="1" stop-color="#0085FF"/>
</linearGradient>
</defs>
</svg>
