<svg width="255" height="301" viewBox="0 0 255 301" fill="none" xmlns="http://www.w3.org/2000/svg">
<path d="M220.226 71.5757H34.7758C15.6019 71.5757 0.00390625 56.3669 0.00390625 37.6713V11.3017C0.00390625 5.0626 5.19536 0 11.5941 0H243.407C249.805 0 254.997 5.0626 254.997 11.3017V37.672C254.997 56.3669 239.399 71.5757 220.226 71.5757Z" fill="url(#paint0_linear_101_123)"/>
<path d="M243.404 300.002H11.5909C5.19215 300.002 0 294.939 0 288.7V262.33C0 243.635 15.598 228.426 34.7719 228.426H220.222C239.396 228.426 254.994 243.635 254.994 262.33V288.7C254.994 294.939 249.803 300.002 243.404 300.002Z" fill="url(#paint1_linear_101_123)"/>
<g filter="url(#filter0_bi_101_123)">
<path d="M188.234 158.925C198.125 165.706 205.079 171.734 209.561 177.309C224.088 195.316 231.815 217.014 231.815 240.069V262.672C231.815 268.925 226.638 273.973 220.224 273.973H34.7745C28.3612 273.973 23.1836 268.926 23.1836 262.672V240.069C23.1836 217.014 30.9104 195.315 45.4378 177.309C49.9198 171.733 56.8739 165.706 66.7646 158.925C73.3327 154.329 73.2556 144.911 66.7646 140.391C56.8739 133.61 49.9198 127.582 45.4378 122.007C30.9111 104 23.1836 82.3019 23.1836 59.2464V36.6437C23.1836 30.3904 28.3605 25.342 34.7745 25.342H220.224C226.637 25.342 231.815 30.3897 231.815 36.6437V59.2464C231.815 82.3012 224.088 104 209.561 122.007C205.079 127.584 198.125 133.61 188.234 140.391C181.666 144.987 181.744 154.405 188.234 158.925Z" fill="#BCCEF1" fill-opacity="0.5"/>
</g>
<path d="M167.674 65.045H87.3125C78.4264 65.045 72.8628 74.4629 77.267 81.9969C83.9122 93.2227 91.5619 98.2711 97.744 102.264C105.626 107.463 111.266 111.23 116.289 130.367C117.757 136.018 122.625 138.806 127.493 138.806C132.438 138.806 137.307 136.018 138.774 130.292C143.719 111.155 149.438 107.464 157.319 102.265C163.424 98.2718 171.073 93.2234 177.719 81.9975C182.124 74.4629 176.56 65.045 167.674 65.045Z" fill="white"/>
<path d="M87.3105 234.927L167.672 234.927C176.558 234.927 182.122 225.509 177.717 217.975C171.072 206.749 163.422 201.7 157.24 197.707C149.359 192.509 143.718 188.742 138.695 169.604C137.227 163.953 132.359 161.166 127.491 161.166C122.546 161.166 117.678 163.953 116.21 169.679C111.265 188.816 105.547 192.508 97.665 197.707C91.5606 201.7 83.9109 206.748 77.2657 217.974C72.8608 225.509 78.4244 234.927 87.3105 234.927Z" fill="white"/>
<defs>
<filter id="filter0_bi_101_123" x="19.1836" y="21.342" width="216.633" height="256.631" filterUnits="userSpaceOnUse" color-interpolation-filters="sRGB">
<feFlood flood-opacity="0" result="BackgroundImageFix"/>
<feGaussianBlur in="BackgroundImageFix" stdDeviation="2"/>
<feComposite in2="SourceAlpha" operator="in" result="effect1_backgroundBlur_101_123"/>
<feBlend mode="normal" in="SourceGraphic" in2="effect1_backgroundBlur_101_123" result="shape"/>
<feColorMatrix in="SourceAlpha" type="matrix" values="0 0 0 0 0 0 0 0 0 0 0 0 0 0 0 0 0 0 127 0" result="hardAlpha"/>
<feOffset dx="0.2" dy="0.1"/>
<feGaussianBlur stdDeviation="0.5"/>
<feComposite in2="hardAlpha" operator="arithmetic" k2="-1" k3="1"/>
<feColorMatrix type="matrix" values="0 0 0 0 1 0 0 0 0 1 0 0 0 0 1 0 0 0 0.6 0"/>
<feBlend mode="normal" in2="shape" result="effect2_innerShadow_101_123"/>
</filter>
<linearGradient id="paint0_linear_101_123" x1="17.2916" y1="21.8366" x2="222.614" y2="-47.8278" gradientUnits="userSpaceOnUse">
<stop stop-color="#0C4EF5"/>
<stop offset="1" stop-color="#0075FF"/>
</linearGradient>
<linearGradient id="paint1_linear_101_123" x1="17.2877" y1="250.263" x2="222.611" y2="180.599" gradientUnits="userSpaceOnUse">
<stop stop-color="#0C4EF5"/>
<stop offset="1" stop-color="#0075FF"/>
</linearGradient>
</defs>
</svg>
