<svg width="106" height="108" viewBox="0 0 106 108" fill="none" xmlns="http://www.w3.org/2000/svg">
<path d="M82.634 32.8752C90.0173 35.0796 95.8538 39.4672 100.123 45.9744C104.268 52.3121 106.124 59.3492 105.176 66.9586C103.629 79.4008 97.0294 88.0488 85.8513 93.0087C82.4071 94.5349 78.7774 95.4463 74.9826 95.3403C74.2814 95.3191 74.3226 95.7218 74.3226 96.1882C74.3226 98.7953 74.302 101.402 74.3433 104.01C74.3639 105.514 74.1164 106.829 72.714 107.613C71.2703 108.418 70.0329 107.846 68.7955 106.998C63.392 103.268 57.968 99.5796 52.5439 95.849C52.0077 95.4675 51.4715 95.3191 50.8322 95.3191C45.4081 95.2555 39.9841 95.6159 34.5807 95.1495C25.7331 94.3653 18.4735 90.3168 12.9257 83.1949C7.72852 76.5181 5.5424 68.8239 6.4086 60.303C7.17168 52.6936 10.3065 46.1864 15.6274 40.8662C20.9277 35.5247 27.3211 32.4937 34.7456 31.8154C34.9106 31.7942 35.0756 31.7306 35.2406 31.667C48.9554 31.667 62.6908 31.667 76.4056 31.667C78.468 32.0485 80.5716 32.2605 82.634 32.8752Z" fill="url(#paint0_linear_63_553)"/>
<g filter="url(#filter0_bi_63_553)">
<path d="M29.034 0C42.7488 0 56.4842 0 70.199 0C70.364 0.0423923 70.529 0.127177 70.694 0.148373C78.1185 0.826651 84.4913 3.8577 89.8122 9.19914C95.1331 14.5406 98.2679 21.0266 99.031 28.636C99.8766 37.1569 97.7111 44.8511 92.4933 51.5491C86.9455 58.6498 79.7066 62.7195 70.8383 63.5037C65.4349 63.9912 60.0109 63.6309 54.5868 63.6733C53.9475 63.6733 53.4113 63.8217 52.875 64.2032C47.4716 67.9337 42.0269 71.6219 36.6235 75.3524C35.3861 76.2002 34.1487 76.7937 32.705 75.9671C31.3026 75.1828 31.0551 73.8475 31.0757 72.3637C31.117 69.7566 31.0757 67.1495 31.0964 64.5423C31.0964 64.0548 31.1376 63.6733 30.4364 63.6945C26.6416 63.7793 22.9912 62.889 19.5677 61.3629C8.3896 56.3818 1.76937 47.7338 0.243215 35.2704C-0.705478 27.6822 1.15066 20.6239 5.29604 14.2862C9.56515 7.77899 15.4223 3.39139 22.785 1.18699C24.8267 0.593493 26.951 0.381531 29.034 0Z" fill="#BCD1F1" fill-opacity="0.5"/>
</g>
<ellipse cx="25.7143" cy="31.6144" rx="7.71429" ry="7.90359" fill="white"/>
<ellipse cx="48.8569" cy="31.6144" rx="7.71429" ry="7.90359" fill="white"/>
<ellipse cx="71.9999" cy="31.6144" rx="7.71429" ry="7.90359" fill="white"/>
<defs>
<filter id="filter0_bi_63_553" x="-4" y="-4" width="107.209" height="84.3636" filterUnits="userSpaceOnUse" color-interpolation-filters="sRGB">
<feFlood flood-opacity="0" result="BackgroundImageFix"/>
<feGaussianBlur in="BackgroundImageFix" stdDeviation="2"/>
<feComposite in2="SourceAlpha" operator="in" result="effect1_backgroundBlur_63_553"/>
<feBlend mode="normal" in="SourceGraphic" in2="effect1_backgroundBlur_63_553" result="shape"/>
<feColorMatrix in="SourceAlpha" type="matrix" values="0 0 0 0 0 0 0 0 0 0 0 0 0 0 0 0 0 0 127 0" result="hardAlpha"/>
<feOffset dx="0.2" dy="0.1"/>
<feGaussianBlur stdDeviation="0.5"/>
<feComposite in2="hardAlpha" operator="arithmetic" k2="-1" k3="1"/>
<feColorMatrix type="matrix" values="0 0 0 0 1 0 0 0 0 1 0 0 0 0 1 0 0 0 0.6 0"/>
<feBlend mode="normal" in2="shape" result="effect2_innerShadow_63_553"/>
</filter>
<linearGradient id="paint0_linear_63_553" x1="12.9492" y1="54.955" x2="100.673" y2="44.0982" gradientUnits="userSpaceOnUse">
<stop stop-color="#0B5CD6"/>
<stop offset="1" stop-color="#0085FF"/>
</linearGradient>
</defs>
</svg>
