<svg width="102" height="107" viewBox="0 0 102 107" fill="none" xmlns="http://www.w3.org/2000/svg">
<path d="M50.5333 106.757C78.4421 106.757 101.067 85.1194 101.067 58.4283C101.067 31.7372 78.4421 10.0997 50.5333 10.0997C22.6245 10.0997 0 31.7372 0 58.4283C0 85.1194 22.6245 106.757 50.5333 106.757Z" fill="url(#paint0_linear_66_136)"/>
<g filter="url(#filter0_bi_66_136)">
<path d="M77.3461 0H23.7189C14.6058 0 7.21826 7.06524 7.21826 15.7808V53.4906C7.21826 62.2062 14.6058 69.2714 23.7189 69.2714H32.4971C35.3362 69.2714 37.9759 70.6676 39.4851 72.9675L43.5445 79.1531C46.7784 84.0811 54.2866 84.0811 57.5206 79.1531L61.5799 72.9675C63.0891 70.6676 65.7288 69.2714 68.568 69.2714H77.3461C86.4592 69.2714 93.8468 62.2062 93.8468 53.4906V15.7808C93.8468 7.06524 86.4592 0 77.3461 0Z" fill="#BCD1F1" fill-opacity="0.5"/>
</g>
<path d="M65.4545 35.8072C67.2142 35.8072 68.6407 34.4429 68.6407 32.76C68.6407 31.077 67.2142 29.7128 65.4545 29.7128H62.2562L63.9239 24.0771C64.4031 22.4577 63.419 20.7736 61.7258 20.3152C60.0332 19.8573 58.2717 20.7981 57.7925 22.4175L55.6337 29.7128H49.4433L51.111 24.0771C51.5902 22.4577 50.6061 20.7736 48.9129 20.3152C47.2203 19.8573 45.4587 20.7981 44.9795 22.4175L42.8208 29.7128H37.8305C36.0708 29.7128 34.6443 31.077 34.6443 32.76C34.6443 34.4429 36.0708 35.8072 37.8305 35.8072H41.0173L39.842 39.7788H34.8674C33.1077 39.7788 31.6812 41.1431 31.6812 42.826C31.6812 44.5088 33.1077 45.8732 34.8674 45.8732H38.0386L36.3232 51.6704C35.844 53.2897 36.8281 54.9739 38.5213 55.4323C38.8112 55.5107 39.1032 55.5483 39.3905 55.5483C40.7801 55.5483 42.0574 54.6719 42.4546 53.33L44.6613 45.8732H50.8517L49.1362 51.6704C48.657 53.2897 49.6412 54.9739 51.3343 55.4323C51.6243 55.5107 51.9163 55.5483 52.2036 55.5483C53.5931 55.5483 54.8707 54.6719 55.2677 53.33L57.4743 45.8732H62.4915C64.2512 45.8732 65.6777 44.5089 65.6777 42.826C65.6777 41.1432 64.2512 39.7788 62.4915 39.7788H59.2777L60.453 35.8072H65.4545ZM52.6549 39.7789H46.4645L47.6398 35.8073H53.8302L52.6549 39.7789Z" fill="white"/>
<defs>
<filter id="filter0_bi_66_136" x="3.21826" y="-4" width="94.6284" height="90.8491" filterUnits="userSpaceOnUse" color-interpolation-filters="sRGB">
<feFlood flood-opacity="0" result="BackgroundImageFix"/>
<feGaussianBlur in="BackgroundImageFix" stdDeviation="2"/>
<feComposite in2="SourceAlpha" operator="in" result="effect1_backgroundBlur_66_136"/>
<feBlend mode="normal" in="SourceGraphic" in2="effect1_backgroundBlur_66_136" result="shape"/>
<feColorMatrix in="SourceAlpha" type="matrix" values="0 0 0 0 0 0 0 0 0 0 0 0 0 0 0 0 0 0 127 0" result="hardAlpha"/>
<feOffset dx="0.2" dy="0.1"/>
<feGaussianBlur stdDeviation="0.5"/>
<feComposite in2="hardAlpha" operator="arithmetic" k2="-1" k3="1"/>
<feColorMatrix type="matrix" values="0 0 0 0 1 0 0 0 0 1 0 0 0 0 1 0 0 0 0.6 0"/>
<feBlend mode="normal" in2="shape" result="effect2_innerShadow_66_136"/>
</filter>
<linearGradient id="paint0_linear_66_136" x1="6.85198" y1="39.5883" x2="96.7088" y2="30.6401" gradientUnits="userSpaceOnUse">
<stop stop-color="#0B5CD6"/>
<stop offset="1" stop-color="#0085FF"/>
</linearGradient>
</defs>
</svg>
