<svg width="127" height="128" viewBox="0 0 127 128" fill="none" xmlns="http://www.w3.org/2000/svg">
<g clip-path="url(#clip0_63_549)">
<path d="M2.7102 63.234C2.70722 73.9885 5.51709 84.4894 10.86 93.7451L2.19922 125.369L34.5604 116.883C43.5111 121.756 53.5397 124.31 63.7307 124.31H63.7575C97.4001 124.31 124.786 96.9327 124.8 63.2821C124.807 46.976 118.463 31.6428 106.937 20.1069C95.4123 8.57203 80.0854 2.21619 63.755 2.20875C30.1085 2.20875 2.72458 29.5849 2.71069 63.234" fill="url(#paint0_linear_63_549)"/>
<path d="M0.53082 63.2141C0.527348 74.3556 3.43793 85.2321 8.97136 94.8192L0 127.577L33.5216 118.787C42.7578 123.823 53.1569 126.478 63.7386 126.482H63.7659C98.6155 126.482 126.985 98.1199 127 63.2647C127.006 46.3727 120.434 30.4883 108.496 18.5392C96.5562 6.5915 80.6812 0.00694574 63.7659 0C28.9104 0 0.544711 28.3585 0.53082 63.2141ZM20.4936 93.1681L19.242 91.1811C13.9804 82.8145 11.2033 73.146 11.2073 63.2181C11.2187 34.2469 34.795 10.6766 63.7858 10.6766C77.8252 10.6825 91.0193 16.1558 100.943 26.0862C110.867 36.0176 116.327 49.2195 116.324 63.2608C116.311 92.2319 92.7338 115.805 63.7659 115.805H63.7451C54.3128 115.8 45.0622 113.267 36.9947 108.48L35.0748 107.341L15.1825 112.557L20.4936 93.1676V93.1681Z" fill="url(#paint1_linear_63_549)"/>
<path d="M47.9612 36.7866C46.7775 34.1557 45.5318 34.1026 44.4062 34.0564C43.4845 34.0167 42.4308 34.0197 41.378 34.0197C40.3243 34.0197 38.6123 34.4161 37.1652 35.9963C35.7166 37.5779 31.6348 41.4001 31.6348 49.1738C31.6348 56.9481 37.2967 64.4609 38.086 65.5162C38.8762 66.5694 49.0164 83.0328 65.0759 89.3663C78.4229 94.6297 81.139 93.5829 84.0357 93.3189C86.9328 93.056 93.384 89.4978 94.7002 85.8081C96.0173 82.1189 96.0173 78.9567 95.6224 78.2958C95.2275 77.6375 94.1738 77.242 92.5938 76.4522C91.0132 75.6619 83.2454 71.8393 81.7973 71.3119C80.3487 70.785 79.2955 70.5221 78.2418 72.1042C77.1881 73.6838 74.1624 77.242 73.2402 78.2958C72.3189 79.3521 71.3967 79.4835 69.8171 78.6932C68.2361 77.9004 63.1476 76.2339 57.1107 70.8515C52.4137 66.6632 49.2426 61.4911 48.3209 59.909C47.3991 58.3293 48.2222 57.473 49.0144 56.6856C49.7243 55.9777 50.595 54.8406 51.3857 53.9183C52.1735 52.9955 52.4365 52.3371 52.9633 51.2833C53.4907 50.2286 53.2267 49.3058 52.8324 48.5155C52.4365 47.7252 49.3661 39.9107 47.9612 36.7866Z" fill="white"/>
</g>
<defs>
<linearGradient id="paint0_linear_63_549" x1="6132.26" y1="12318.2" x2="6132.26" y2="2.20875" gradientUnits="userSpaceOnUse">
<stop stop-color="#1FAF38"/>
<stop offset="1" stop-color="#60D669"/>
</linearGradient>
<linearGradient id="paint1_linear_63_549" x1="6350" y1="12757.7" x2="6350" y2="0" gradientUnits="userSpaceOnUse">
<stop stop-color="#F9F9F9"/>
<stop offset="1" stop-color="white"/>
</linearGradient>
<clipPath id="clip0_63_549">
<rect width="127" height="128" fill="white"/>
</clipPath>
</defs>
</svg>
