<svg width="58" height="58" viewBox="0 0 58 58" fill="none" xmlns="http://www.w3.org/2000/svg">
<path d="M26.2811 46.6416L10.3311 30.6916C10.0895 30.4499 9.91787 30.1881 9.81637 29.9062C9.71487 29.6242 9.66493 29.3222 9.66654 28.9999C9.66654 28.6777 9.71729 28.3756 9.81879 28.0937C9.92029 27.8117 10.0911 27.5499 10.3311 27.3083L26.2811 11.3583C26.7242 10.9152 27.2784 10.684 27.9438 10.6647C28.6092 10.6454 29.1827 10.8766 29.6645 11.3583C30.1478 11.8013 30.3999 12.3556 30.4209 13.0209C30.4418 13.6863 30.2098 14.2599 29.7249 14.7416L17.8832 26.5833H44.8895C45.5742 26.5833 46.1485 26.8153 46.6125 27.2793C47.0765 27.7433 47.3077 28.3168 47.3061 28.9999C47.3061 29.6847 47.0749 30.259 46.6125 30.723C46.1502 31.187 45.5758 31.4182 44.8895 31.4166H17.8832L29.7249 43.2583C30.1679 43.7013 30.3999 44.2652 30.4209 44.9499C30.4418 45.6347 30.2098 46.1986 29.7249 46.6416C29.2818 47.1249 28.7179 47.3666 28.0332 47.3666C27.3485 47.3666 26.7645 47.1249 26.2811 46.6416Z" fill="black"/>
</svg>
