<svg width="37" height="36" viewBox="0 0 37 36" fill="none" xmlns="http://www.w3.org/2000/svg">
<path d="M14.421 31.5C15.5081 32.4335 16.9361 33 18.5 33C20.064 33 21.4919 32.4335 22.579 31.5M27.75 12C27.75 9.61305 26.7755 7.32387 25.0408 5.63604C23.306 3.94821 20.9533 3 18.5 3C16.0468 3 13.694 3.94821 11.9593 5.63604C10.2246 7.32387 9.25002 9.61305 9.25002 12C9.25002 16.6353 8.04824 19.8089 6.70575 21.9081C5.57334 23.6788 5.00713 24.5642 5.02789 24.8111C5.05088 25.0846 5.11043 25.1889 5.33692 25.3524C5.54148 25.5 6.4636 25.5 8.30784 25.5H28.6922C30.5364 25.5 31.4586 25.5 31.6631 25.3524C31.8896 25.1889 31.9492 25.0846 31.9721 24.8111C31.9929 24.5642 31.4267 23.6788 30.2943 21.9081C28.9518 19.8089 27.75 16.6353 27.75 12Z" stroke="black" stroke-width="2" stroke-linecap="round" stroke-linejoin="round"/>
</svg>
