<svg width="38" height="38" viewBox="0 0 38 38" fill="none" xmlns="http://www.w3.org/2000/svg">
<path d="M22.1668 3.59339V10.1334C22.1668 11.0202 22.1668 11.4635 22.3394 11.8022C22.4912 12.1002 22.7334 12.3424 23.0313 12.4942C23.37 12.6667 23.8134 12.6667 24.7002 12.6667H31.2402M31.6668 15.8148V27.2334C31.6668 29.8937 31.6668 31.2238 31.1491 32.2399C30.6937 33.1336 29.9671 33.8603 29.0733 34.3157C28.0572 34.8334 26.7271 34.8334 24.0668 34.8334H13.9335C11.2732 34.8334 9.94312 34.8334 8.92704 34.3157C8.03327 33.8603 7.30661 33.1336 6.85122 32.2399C6.3335 31.2238 6.3335 29.8937 6.3335 27.2334V10.7667C6.3335 8.1065 6.3335 6.77637 6.85122 5.76029C7.30661 4.86652 8.03327 4.13987 8.92704 3.68447C9.94312 3.16675 11.2732 3.16675 13.9335 3.16675H19.0188C20.1806 3.16675 20.7615 3.16675 21.3082 3.29799C21.7929 3.41435 22.2562 3.60627 22.6812 3.86671C23.1605 4.16046 23.5713 4.57122 24.3928 5.39274L29.4408 10.4408C30.2624 11.2623 30.6731 11.673 30.9669 12.1524C31.2273 12.5774 31.4192 13.0407 31.5356 13.5254C31.6668 14.0721 31.6668 14.653 31.6668 15.8148Z" stroke="black" stroke-width="2" stroke-linecap="round" stroke-linejoin="round"/>
</svg>
