<svg width="10" height="18" viewBox="0 0 10 18" fill="none" xmlns="http://www.w3.org/2000/svg">
<path d="M1.98157 0.345516L9.74654 8.08745C9.83871 8.17962 9.90384 8.27946 9.94194 8.38699C9.98065 8.49452 10 8.60972 10 8.73261C10 8.8555 9.98065 8.97071 9.94194 9.07823C9.90384 9.18576 9.83871 9.28561 9.74654 9.37778L1.98157 17.1428C1.76651 17.3578 1.49769 17.4653 1.17511 17.4653C0.852534 17.4653 0.576036 17.3501 0.345622 17.1197C0.115207 16.8893 0 16.6205 0 16.3133C0 16.006 0.115207 15.7372 0.345622 15.5068L7.11982 8.73261L0.345622 1.95842C0.130569 1.74337 0.0230408 1.47854 0.0230408 1.16395C0.0230408 0.848742 0.138248 0.57593 0.368663 0.345516C0.599078 0.115101 0.867895 -0.000106812 1.17511 -0.000106812C1.48233 -0.000106812 1.75115 0.115101 1.98157 0.345516Z" fill="#BFBFBF"/>
</svg>
