<svg width="14" height="24" viewBox="0 0 14 24" fill="none" xmlns="http://www.w3.org/2000/svg">
<path d="M2.77419 0.474934L13.6451 11.1135C13.7742 11.2401 13.8658 11.3773 13.92 11.5251C13.9742 11.6728 14.0008 11.8311 14 12C14 12.1689 13.9729 12.3272 13.9187 12.4749C13.8645 12.6227 13.7733 12.7599 13.6451 12.8865L2.77419 23.5567C2.47311 23.8522 2.09677 24 1.64516 24C1.19355 24 0.80645 23.8417 0.48387 23.5251C0.16129 23.2084 0 22.8391 0 22.4169C0 21.9947 0.16129 21.6253 0.48387 21.3087L9.96773 12L0.48387 2.69129C0.182796 2.39578 0.0322571 2.03145 0.0322571 1.59831C0.0322571 1.16517 0.193547 0.790712 0.516128 0.474934C0.838708 0.158312 1.21505 0 1.64516 0C2.07526 0 2.45161 0.158312 2.77419 0.474934Z" fill="#0C4EF5" fill-opacity="0.76"/>
</svg>
