<svg width="38" height="38" viewBox="0 0 38 38" fill="none" xmlns="http://www.w3.org/2000/svg">
<path d="M26.9168 17.4167V12.6667C26.9168 8.29441 23.3724 4.75 19.0002 4.75C14.6279 4.75 11.0835 8.29441 11.0835 12.6667V17.4167M13.9335 33.25H24.0668C26.7271 33.25 28.0572 33.25 29.0733 32.7323C29.9671 32.2769 30.6937 31.5502 31.1491 30.6565C31.6668 29.6404 31.6668 28.3102 31.6668 25.65V25.0167C31.6668 22.3564 31.6668 21.0263 31.1491 20.0102C30.6937 19.1164 29.9671 18.3898 29.0733 17.9344C28.0572 17.4167 26.7271 17.4167 24.0668 17.4167H13.9335C11.2732 17.4167 9.94312 17.4167 8.92704 17.9344C8.03327 18.3898 7.30661 19.1164 6.85122 20.0102C6.3335 21.0263 6.3335 22.3564 6.3335 25.0167V25.65C6.3335 28.3102 6.3335 29.6404 6.85122 30.6565C7.30661 31.5502 8.03327 32.2769 8.92704 32.7323C9.94312 33.25 11.2732 33.25 13.9335 33.25Z" stroke="black" stroke-width="2" stroke-linecap="round" stroke-linejoin="round"/>
</svg>
