<svg xmlns="http://www.w3.org/2000/svg" height="40" viewBox="0 -960 960 960" width="40"><path d="M170.001-205.385v-50.255h81.897v-302.719q0-81.927 50.051-145.014 50.052-63.088 129.949-79.293v-28.41q0-20.354 13.885-33.485 13.884-13.13 34.217-13.13t34.217 13.13q13.885 13.131 13.885 33.485v28.41q79.897 16.205 130.154 79.293 50.256 63.087 50.256 145.014v302.719h81.487v50.255H170.001ZM480-493.077Zm0 405.384q-29.128 0-50.718-21-21.589-21-21.589-51.307h144.614q0 30.307-21 51.307-21 21-51.307 21ZM302.153-255.64h356.104v-302.719q0-74.41-51.718-126.539-51.718-52.128-126.129-52.128-74.41 0-126.334 52.128-51.923 52.129-51.923 126.539v302.719Z"/></svg>