<svg width="270" height="313" viewBox="0 0 270 313" fill="none" xmlns="http://www.w3.org/2000/svg">
<path d="M207.42 70.99V93.0451C207.42 98.7519 202.695 103.383 196.873 103.383C191.051 103.383 186.326 98.7519 186.326 93.0451V70.99C186.326 43.2487 163.299 20.6767 134.998 20.6767C106.697 20.6767 83.6699 43.2487 83.6699 70.99V93.0451C83.6699 98.7519 78.9449 103.383 73.123 103.383C67.3012 103.383 62.5762 98.7519 62.5762 93.0451V70.99C62.5762 31.849 95.0676 0 134.998 0C174.929 0 207.42 31.849 207.42 70.99Z" fill="#BCCEF1" fill-opacity="0.5"/>
<path d="M219.377 113.722V239.85H50.627V113.722C50.627 102.301 60.0699 93.045 71.7207 93.045H198.283C209.934 93.045 219.377 102.301 219.377 113.722Z" fill="url(#paint0_linear_83_326)"/>
<path d="M145.545 137.707V159.762C145.545 165.469 140.82 170.1 134.998 170.1C129.176 170.1 124.451 165.469 124.451 159.762V137.707C124.451 132 129.176 127.368 134.998 127.368C140.82 127.368 145.545 132 145.545 137.707Z" fill="white"/>
<g filter="url(#filter0_bi_83_326)">
<path d="M270 223.033V291.955C270 303.376 260.557 312.632 248.906 312.632H21.0938C9.44297 312.632 0 303.376 0 291.955V223.033C0 211.612 9.44297 202.356 21.0938 202.356H248.906C260.557 202.356 270 211.612 270 223.033Z" fill="#BCCEF1" fill-opacity="0.5"/>
</g>
<path d="M225.002 267.146C230.828 267.146 235.552 262.516 235.552 256.805C235.552 251.093 230.828 246.463 225.002 246.463C219.175 246.463 214.451 251.093 214.451 256.805C214.451 262.516 219.175 267.146 225.002 267.146Z" fill="white"/>
<path d="M179.998 267.146C185.824 267.146 190.548 262.516 190.548 256.805C190.548 251.093 185.824 246.463 179.998 246.463C174.171 246.463 169.447 251.093 169.447 256.805C169.447 262.516 174.171 267.146 179.998 267.146Z" fill="white"/>
<path d="M134.998 267.143C140.823 267.143 145.545 262.515 145.545 256.805C145.545 251.095 140.823 246.467 134.998 246.467C129.173 246.467 124.451 251.095 124.451 256.805C124.451 262.515 129.173 267.143 134.998 267.143Z" fill="white"/>
<path d="M90.0016 267.146C95.8284 267.146 100.552 262.516 100.552 256.805C100.552 251.093 95.8284 246.463 90.0016 246.463C84.1747 246.463 79.4512 251.093 79.4512 256.805C79.4512 262.516 84.1747 267.146 90.0016 267.146Z" fill="white"/>
<path d="M44.9996 267.146C50.8264 267.146 55.55 262.516 55.55 256.805C55.55 251.093 50.8264 246.463 44.9996 246.463C39.1728 246.463 34.4492 251.093 34.4492 256.805C34.4492 262.516 39.1728 267.146 44.9996 267.146Z" fill="white"/>
<defs>
<filter id="filter0_bi_83_326" x="-4" y="198.356" width="278" height="118.276" filterUnits="userSpaceOnUse" color-interpolation-filters="sRGB">
<feFlood flood-opacity="0" result="BackgroundImageFix"/>
<feGaussianBlur in="BackgroundImageFix" stdDeviation="2"/>
<feComposite in2="SourceAlpha" operator="in" result="effect1_backgroundBlur_83_326"/>
<feBlend mode="normal" in="SourceGraphic" in2="effect1_backgroundBlur_83_326" result="shape"/>
<feColorMatrix in="SourceAlpha" type="matrix" values="0 0 0 0 0 0 0 0 0 0 0 0 0 0 0 0 0 0 127 0" result="hardAlpha"/>
<feOffset dx="0.2" dy="0.1"/>
<feGaussianBlur stdDeviation="0.5"/>
<feComposite in2="hardAlpha" operator="arithmetic" k2="-1" k3="1"/>
<feColorMatrix type="matrix" values="0 0 0 0 1 0 0 0 0 1 0 0 0 0 1 0 0 0 0.6 0"/>
<feBlend mode="normal" in2="shape" result="effect2_innerShadow_83_326"/>
</filter>
<linearGradient id="paint0_linear_83_326" x1="62.0676" y1="137.833" x2="211.794" y2="121.442" gradientUnits="userSpaceOnUse">
<stop stop-color="#0B5CD6"/>
<stop offset="1" stop-color="#0085FF"/>
</linearGradient>
</defs>
</svg>
