<svg width="97" height="114" viewBox="0 0 97 114" fill="none" xmlns="http://www.w3.org/2000/svg">
<path d="M74.5183 26.3986V34.3221C74.5183 36.3723 72.8208 38.0362 70.7292 38.0362C68.6376 38.0362 66.9401 36.3723 66.9401 34.3221V26.3986C66.9401 16.4323 58.6673 8.32307 48.5 8.32307C38.3327 8.32307 30.0599 16.4323 30.0599 26.3986V34.3221C30.0599 36.3723 28.3624 38.0362 26.2709 38.0362C24.1793 38.0362 22.4818 36.3723 22.4818 34.3221V26.3986C22.4818 12.3368 34.1546 0.894775 48.5 0.894775C62.8454 0.894775 74.5183 12.3368 74.5183 26.3986Z" fill="#85A3DD" fill-opacity="0.5"/>
<path d="M78.8124 41.7502V87.0628H18.1874V41.7502C18.1874 37.6473 21.5799 34.3219 25.7655 34.3219H71.2343C75.4199 34.3219 78.8124 37.6473 78.8124 41.7502Z" fill="url(#paint0_linear_288_127)"/>
<path d="M52.2889 50.3669V58.2904C52.2889 60.3406 50.5914 62.0046 48.4998 62.0046C46.4082 62.0046 44.7107 60.3406 44.7107 58.2904V50.3669C44.7107 48.3167 46.4082 46.6528 48.4998 46.6528C50.5914 46.6528 52.2889 48.3167 52.2889 50.3669Z" fill="white"/>
<path d="M97 81.0209V105.782C97 109.885 93.6075 113.21 89.4219 113.21H7.57812C3.39247 113.21 0 109.885 0 105.782V81.0209C0 76.918 3.39247 73.5927 7.57812 73.5927H89.4219C93.6075 73.5927 97 76.918 97 81.0209Z" fill="#85A3DD" fill-opacity="0.5"/>
<path d="M80.8336 96.8697C82.9269 96.8697 84.6239 95.2062 84.6239 93.1543C84.6239 91.1023 82.9269 89.4389 80.8336 89.4389C78.7402 89.4389 77.0432 91.1023 77.0432 93.1543C77.0432 95.2062 78.7402 96.8697 80.8336 96.8697Z" fill="white"/>
<path d="M64.6664 96.8697C66.7597 96.8697 68.4567 95.2062 68.4567 93.1543C68.4567 91.1023 66.7597 89.4389 64.6664 89.4389C62.5731 89.4389 60.8761 91.1023 60.8761 93.1543C60.8761 95.2062 62.5731 96.8697 64.6664 96.8697Z" fill="white"/>
<path d="M48.4998 96.8685C50.5924 96.8685 52.2889 95.2056 52.2889 93.1544C52.2889 91.1031 50.5924 89.4402 48.4998 89.4402C46.4072 89.4402 44.7107 91.1031 44.7107 93.1544C44.7107 95.2056 46.4072 96.8685 48.4998 96.8685Z" fill="white"/>
<path d="M32.3336 96.8697C34.427 96.8697 36.124 95.2062 36.124 93.1543C36.124 91.1023 34.427 89.4389 32.3336 89.4389C30.2403 89.4389 28.5433 91.1023 28.5433 93.1543C28.5433 95.2062 30.2403 96.8697 32.3336 96.8697Z" fill="white"/>
<path d="M16.1667 96.8697C18.2601 96.8697 19.957 95.2062 19.957 93.1543C19.957 91.1023 18.2601 89.4389 16.1667 89.4389C14.0734 89.4389 12.3764 91.1023 12.3764 93.1543C12.3764 95.2062 14.0734 96.8697 16.1667 96.8697Z" fill="white"/>
<defs>
<linearGradient id="paint0_linear_288_127" x1="6.57627" y1="35.1605" x2="93.0874" y2="28.0448" gradientUnits="userSpaceOnUse">
<stop stop-color="#0B5CD6"/>
<stop offset="1" stop-color="#0085FF"/>
</linearGradient>
</defs>
</svg>
