<svg xmlns="http://www.w3.org/2000/svg" height="40" viewBox="0 -960 960 960" width="40"><path d="M455.949-225.694h50.255v-193.898l82.668 82.923 35.383-35.588L480-514.615 336.822-371.18l35.332 35.127 83.795-83.539v193.898ZM242.565-100.001q-25.788 0-44.176-18.388t-18.388-44.176v-634.87q0-25.788 18.388-44.176t44.176-18.388h337.59l199.844 199.844v497.59q0 25.788-18.388 44.176t-44.176 18.388h-474.87Zm312.462-536.513v-173.23H242.565q-4.616 0-8.462 3.847-3.847 3.846-3.847 8.462v634.87q0 4.616 3.847 8.462 3.846 3.847 8.462 3.847h474.87q4.616 0 8.462-3.847 3.847-3.846 3.847-8.462v-473.949H555.027Zm-324.771-173.23v173.23-173.23V-150.256-809.744Z"/></svg>